<?xml version="1.0" standalone="no"?><svg xmlns="http://www.w3.org/2000/svg" viewBox="0 0 1440 320"><path fill="#0099ff" fill-opacity="1" d="M0,96L40,106.7C80,117,160,139,240,170.7C320,203,400,245,480,261.3C560,277,640,267,720,256C800,245,880,235,960,218.7C1040,203,1120,181,1200,186.7C1280,192,1360,224,1400,240L1440,256L1440,320L1400,320C1360,320,1280,320,1200,320C1120,320,1040,320,960,320C880,320,800,320,720,320C640,320,560,320,480,320C400,320,320,320,240,320C160,320,80,320,40,320L0,320Z"></path></svg>